{"title":"The.Avengers.2012.CAM.V2.XviD.AC3-TODE","uid":7244982,"size":1472381880,"categoryP":"video","categoryS":"movies","magnet":"?xt=urn:btih:56aa4b473a0304ef2499aa1399befe5f2ee2c0d7&amp;dn=The.Avengers.2012.CAM.V2.XviD.AC3-TODE&amp;tr=udp%3A%2F%2Ftracker.openbittorrent.com%3A80&amp;tr=udp%3A%2F%2Fopen.demonii.com%3A1337&amp;tr=udp%3A%2F%2Ftracker.coppersurfer.tk%3A6969&amp;tr=udp%3A%2F%2Fexodus.desync.com%3A6969","seeders":1,"leechers":0,"uploader":"Mr.Stifmeister","files":-1,"time":1336252216,"description":"The Avengers 2012 CAM V2 XviD AC3 - TODE\n\n\nPlot: Nick Fury of S.H.I.E.L.D. brings together a team of super humans to form The Avengers to help save the Earth from Loki and his army. \n\n\nDirector: Joss Whedon\nWriters: Zak Penn (story), Joss Whedon (story)\nStars:Robert Downey Jr., Chris Evans and Scarlett Johansson\nGenres:Action | Adventure | Sci-Fi \nCountry:USA \nLanguage:English \nRuntime: 2h 11min\n\nThanks: HOPE\n\nFormat                                   : AVI\nFormat/Info                              : Audio Video Interleave\nFormat profile                           : OpenDML\nFile size                                : 1.37 GiB\nDuration                                 : 2h 11mn\nOverall bit rate                         : 1 491 Kbps\nWriting application                      : Lavf54.3.100\n\nVideo\nID                                       : 0\nFormat                                   : MPEG-4 Visual\nFormat profile                           : Simple@L3\nFormat settings, BVOP                    : No\nFormat settings, QPel                    : No\nFormat settings, GMC                     : No warppoints\nFormat settings, Matrix                  : Default (H.263)\nCodec ID                                 : XVID\nCodec ID/Hint                            : XviD\nDuration                                 : 2h 11mn\nBit rate                                 : 1 349 Kbps\nWidth                                    : 640 pixels\nHeight                                   : 264 pixels\nDisplay aspect ratio                     : 2.40:1\nFrame rate                               : 30.000 fps\nColor space                              : YUV\nChroma subsampling                       : 4:2:0\nBit depth                                : 8 bits\nScan type                                : Progressive\nCompression mode                         : Lossy\nBits/(Pixel*Frame)                       : 0.266\nStream size                              : 1.24 GiB (90%)\nWriting library                          : XviD 64\n\nAudio\nID                                       : 1\nFormat                                   : AC-3\nFormat/Info                              : Audio Coding 3\nMode extension                           : CM (complete main)\nCodec ID                                 : 2000\nDuration                                 : 2h 11mn\nBit rate mode                            : Constant\nBit rate                                 : 128 Kbps\nChannel(s)                               : 2 channels\nChannel positions                        : Front: L R\nSampling rate                            : 48.0 KHz\nBit depth                                : 16 bits\nCompression mode                         : Lossy\nStream size                              : 120 MiB (9%)\nAlignment                                : Aligned on interleaves\nInterleave, duration                     : 32 ms (0.96 video frame)\n\n","torrent":{"xt":"urn:btih:56aa4b473a0304ef2499aa1399befe5f2ee2c0d7","amp;dn":"The.Avengers.2012.CAM.V2.XviD.AC3-TODE","amp;tr":["udp%3A%2F%2Ftracker.openbittorrent.com%3A80","udp%3A%2F%2Fopen.demonii.com%3A1337","udp%3A%2F%2Ftracker.coppersurfer.tk%3A6969","udp%3A%2F%2Fexodus.desync.com%3A6969"],"infoHash":"56aa4b473a0304ef2499aa1399befe5f2ee2c0d7","infoHashBuffer":{"type":"Buffer","data":[86,170,75,71,58,3,4,239,36,153,170,19,153,190,254,95,46,226,192,215]},"announce":[],"urlList":[]}}